<?xml version="1.0" encoding="UTF-8"?>
<!DOCTYPE svg PUBLIC "-//W3C//DTD SVG 1.1//EN" "http://www.w3.org/Graphics/SVG/1.1/DTD/svg11.dtd">
<svg version="1.1" xmlns="http://www.w3.org/2000/svg" xmlns:xlink="http://www.w3.org/1999/xlink" x="0" y="0" width="86.4" height="43.2" viewBox="0, 0, 72, 36">
  <g id="Ebene_1">
    <path d="M0,-0 L72,0 L56.193,18 L72,36 L0,36 L0,-0 z M6.009,18.027 C6.021,26.799 13.146,34.731 21.921,34.719 C30.693,34.704 41.157,27.438 56.16,17.943 C41.124,8.499 30.639,1.269 21.867,1.281 C13.092,1.296 5.994,9.252 6.006,18.027 z M10.188,18.018 C10.176,11.34 15.636,5.472 21.873,5.463 C28.335,5.451 36.786,10.647 48.351,17.955 C36.81,25.305 28.377,30.528 21.915,30.537 C15.678,30.549 10.197,24.699 10.188,18.018 z M16.455,18.009 C16.461,21.471 19.272,24.273 22.734,24.267 C26.199,24.261 29.001,21.45 28.995,17.988 C28.989,14.526 26.178,11.724 22.716,11.73 C19.251,11.736 16.449,14.547 16.455,18.009 z" fill="#000000"/>
  </g>
</svg>
